<?xml version="1.0" encoding="utf-8"?>
<!-- Generator: Adobe Illustrator 17.1.0, SVG Export Plug-In . SVG Version: 6.00 Build 0)  -->
<!DOCTYPE svg PUBLIC "-//W3C//DTD SVG 1.1//EN" "http://www.w3.org/Graphics/SVG/1.1/DTD/svg11.dtd">
<svg version="1.1" id="Layer_1" xmlns="http://www.w3.org/2000/svg" xmlns:xlink="http://www.w3.org/1999/xlink" x="0px" y="0px"
	 viewBox="0 0 361.482 361.482" enable-background="new 0 0 361.482 361.482" xml:space="preserve">
<path fill="#FFFFFF" stroke="#231F20" stroke-width="19.0216" stroke-miterlimit="10" d="M272.372,20.358
	c-18.636,28.696-51.422,47.742-88.761,47.742s-70.125-19.046-88.761-47.742H73.481v319.116h219.915V20.358H272.372z"/>
<path stroke="#231F20" stroke-miterlimit="10" d="M347.021,66.732v93.76h-107.25v-92.76h0.01c-0.01-0.33-0.01-0.66-0.01-1
	c0-29.61,24.01-53.62,53.62-53.62C323.011,13.112,347.021,37.122,347.021,66.732z"/>
<path fill="#FFFFFF" stroke="#231F20" stroke-miterlimit="10" d="M239.781,67.732h-0.01v-1
	C239.771,67.072,239.771,67.402,239.781,67.732z"/>
<path stroke="#231F20" stroke-miterlimit="10" d="M127.451,67.732v92.76H20.201v-87.74c-0.23-1.97-0.34-3.98-0.34-6.02
	c0-29.61,24.01-53.62,53.62-53.62c29.62,0,53.63,24.01,53.63,53.62c0,0.34,0,0.67-0.01,1H127.451z"/>
<path fill="#FFFFFF" stroke="#231F20" stroke-miterlimit="10" d="M127.451,66.732v1h-0.35c0.01-0.33,0.01-0.66,0.01-1H127.451z"/>
<text transform="matrix(1 0 0 1 136.5607 262.6982)" font-family="'RockwellStd'" font-size="173">S</text>
</svg>
